<svg version="1" xmlns="http://www.w3.org/2000/svg" width="941.333" height="941.333" viewBox="0 0 706.000000 706.000000"><path d="M333.6 147.7c-.1.1-4.9.4-10.7.8-5.8.3-12 .7-13.9 1-4.7.5-14 1.7-16.5 2-1.1.1-4 .6-6.5.9-2.5.4-5.6.9-7 1.1-1.4.2-5 .8-8 1.4-3 .6-6.8 1.4-8.5 1.7-1.6.3-6.2 1.4-10.1 2.4-3.9 1-8.1 2.1-9.5 2.4-1.3.2-4.9 1.2-7.9 2.2-3 .9-5.9 1.7-6.5 1.9-.5.1-1.8.5-2.7.9-.9.4-2.2.9-3 1-5.2 1.1-6.8 1.9-6.4 3.5.5 1.8 1.3 6.5 2.1 12.6.3 2.2.8 5.1 1 6.5 1 5.7 3.2 21.3 4 29 .4 3 .8 6.6 1 8 .2 1.4.7 5.6 1 9.5.3 3.8.8 9.2 1 12 4.1 44.5 5 116 2 147-.2 2.2-.7 7.1-1 11-.3 3.8-.7 8.6-1 10.5-.2 1.9-.7 6.4-1 10-.8 10-1.6 18.2-2.1 21.5-.2 1.6-.6 5.7-.8 9-.3 3.3-.8 8.7-1.1 12-1.3 13-1.5 16.5-2.1 31.5-.8 21.2 1.3 30.1 9.5 40.4 3.1 3.9 12.2 11 17.1 13.3 6.1 2.9 17.3 5.4 24.5 5.5 13.1.1 39.9-5.7 39-8.5-1.3-3.5-4.7-29.5-6-45.7-2.5-29.1-2.8-33.8-4-61-2.5-55.8-2.5-149.1 0-196 .2-3 .6-11.1.9-18 .9-16.5 1.5-24.1 2.1-25 .3-.4 3.5-1.4 7.2-2.1 3.8-.7 7-1.4 7.3-1.4.6-.1 6.4-1.1 13-2.2 6-1 35.2-1 41.5 0 32.6 5.3 53.3 23.3 59.9 52 2.7 11.8 2.8 34.2.2 47.2-1 4.9-2.2 9.6-2.6 10.5-.4.8-2.7 5.5-5 10.4-5.5 11.7-16.7 23.3-27.5 28.5-11.5 5.5-17.9 7.5-29 8.6-12.2 1.3-29.6.6-35-1.5-1.4-.5-2.5-.7-2.5-.5 0 .2-1.1 0-2.5-.5-2.4-.9-2.5-.7-4.2 4.8-1.8 6.1-2.4 21.1-1 27.1 2.6 11.3 14 19.8 29.1 21.8 13.8 1.8 35.5.4 50.1-3.4 3.3-.8 7-1.7 8.1-1.9 1.2-.2 3.5-1.1 5-1.9 1.6-.8 3.3-1.5 3.8-1.5 1.3 0 13-5.3 13.6-6.1.3-.4 1.8-1.1 3.3-1.4 1.5-.4 2.7-1.1 2.7-1.6s.6-.9 1.3-.9c.7 0 2.3-.9 3.5-2 1.2-1.1 2.4-2 2.7-2 1.4 0 15.5-11.3 22-17.7 23.1-22.5 36.4-48.6 41.2-80.8.8-5.7.9-32 .1-38.5-.6-4.5-2.8-15.3-4.1-19.5-.2-.6-.7-2.1-1.1-3.5-1.9-6.3-11.1-23.2-15.1-27.6-4.3-4.8-9.8-10.4-12.6-12.9-4.6-4.1-17.1-12.5-18.6-12.5-.6 0-1.3-.3-1.5-.8-.4-.9-14.6-7.9-21.3-10.5-6.2-2.3-27.9-8.6-32-9.2-3.1-.4-6.9-1.1-11.7-2.1-2.7-.5-5.6-.9-17.8-2-6.8-.6-38.9-1.2-39.4-.7z"/></svg>